<svg width="900" height="560" viewBox="0 0 900 560" fill="none" xmlns="http://www.w3.org/2000/svg">
  <defs>
    <linearGradient id="bg5" x1="0" y1="0" x2="900" y2="560" gradientUnits="userSpaceOnUse">
      <stop stop-color="#0D1F3D"/>
      <stop offset="1" stop-color="#114D79"/>
    </linearGradient>
    <linearGradient id="pipe" x1="0" y1="0" x2="1" y2="1">
      <stop stop-color="#2AD6FF"/>
      <stop offset="1" stop-color="#67E0A8"/>
    </linearGradient>
  </defs>
  <rect width="900" height="560" rx="30" fill="url(#bg5)"/>
  <rect x="24" y="24" width="852" height="512" rx="24" stroke="#8BDDF2" stroke-opacity="0.3"/>
  <g>
    <rect x="76" y="170" width="176" height="210" rx="18" fill="#163D67"/>
    <rect x="284" y="130" width="176" height="250" rx="18" fill="#1A4F7B"/>
    <rect x="492" y="92" width="176" height="288" rx="18" fill="#1F658F"/>
    <rect x="700" y="54" width="124" height="326" rx="18" fill="#2492B8"/>
  </g>
  <path d="M252 275H284M460 255H492M668 235H700" stroke="url(#pipe)" stroke-width="10" stroke-linecap="round"/>
  <text x="110" y="420" fill="#DFF5FF" font-family="Arial" font-size="24" font-weight="700">1. Diagnostico</text>
  <text x="306" y="420" fill="#DFF5FF" font-family="Arial" font-size="24" font-weight="700">2. Escopo</text>
  <text x="526" y="420" fill="#DFF5FF" font-family="Arial" font-size="24" font-weight="700">3. Simulacao</text>
  <text x="714" y="420" fill="#DFF5FF" font-family="Arial" font-size="24" font-weight="700">4. Proposta</text>
  <rect x="76" y="454" width="748" height="64" rx="14" fill="#112949" stroke="#8BDDF2" stroke-opacity="0.3"/>
  <text x="110" y="496" fill="#BDEBFF" font-family="Arial" font-size="28" font-weight="700">Orcamento automatico com faixa de valor em tempo real</text>
</svg>
