<svg width="900" height="620" viewBox="0 0 900 620" fill="none" xmlns="http://www.w3.org/2000/svg">
  <defs>
    <linearGradient id="bg2" x1="120" y1="40" x2="760" y2="560" gradientUnits="userSpaceOnUse">
      <stop stop-color="#111B34"/>
      <stop offset="1" stop-color="#1B4A74"/>
    </linearGradient>
  </defs>
  <rect width="900" height="620" rx="36" fill="url(#bg2)"/>
  <rect x="24" y="24" width="852" height="572" rx="28" stroke="#7BC6E8" stroke-opacity="0.28"/>
  <rect x="72" y="82" width="756" height="396" rx="24" fill="#0F2A4F" stroke="#6AB4E8" stroke-opacity="0.35"/>
  <rect x="102" y="112" width="330" height="150" rx="18" fill="#163E6A"/>
  <rect x="468" y="112" width="330" height="150" rx="18" fill="#163E6A"/>
  <rect x="102" y="294" width="506" height="154" rx="18" fill="#163E6A"/>
  <rect x="632" y="294" width="166" height="154" rx="18" fill="#1B557F"/>
  <rect x="132" y="144" width="124" height="14" rx="7" fill="#8AE6FF"/>
  <rect x="132" y="170" width="214" height="10" rx="5" fill="#5FB8DA"/>
  <rect x="132" y="190" width="182" height="10" rx="5" fill="#5FB8DA"/>
  <rect x="498" y="144" width="124" height="14" rx="7" fill="#8AE6FF"/>
  <rect x="498" y="170" width="214" height="10" rx="5" fill="#5FB8DA"/>
  <rect x="498" y="190" width="176" height="10" rx="5" fill="#5FB8DA"/>
  <circle cx="715" cy="371" r="42" fill="#1FD4FF" fill-opacity="0.35"/>
  <path d="M680 371H750" stroke="#B6EDFF" stroke-width="8" stroke-linecap="round"/>
  <path d="M715 336V406" stroke="#B6EDFF" stroke-width="8" stroke-linecap="round"/>
  <rect x="72" y="500" width="756" height="72" rx="16" fill="#102746" stroke="#7BC6E8" stroke-opacity="0.3"/>
  <text x="100" y="548" fill="#DFF5FF" font-family="Arial" font-size="34" font-weight="700">Corporativo e comercial com SLA e rastreabilidade</text>
</svg>
