<svg width="900" height="560" viewBox="0 0 900 560" fill="none" xmlns="http://www.w3.org/2000/svg">
  <defs>
    <linearGradient id="bg4" x1="0" y1="0" x2="900" y2="560" gradientUnits="userSpaceOnUse">
      <stop stop-color="#102548"/>
      <stop offset="1" stop-color="#0E3E68"/>
    </linearGradient>
  </defs>
  <rect width="900" height="560" rx="30" fill="url(#bg4)"/>
  <rect x="28" y="28" width="844" height="504" rx="24" stroke="#82D6F1" stroke-opacity="0.28"/>
  <rect x="76" y="84" width="748" height="124" rx="18" fill="#153E69"/>
  <rect x="76" y="226" width="360" height="260" rx="18" fill="#153E69"/>
  <rect x="454" y="226" width="370" height="124" rx="18" fill="#153E69"/>
  <rect x="454" y="362" width="370" height="124" rx="18" fill="#1A557F"/>
  <rect x="104" y="118" width="220" height="16" rx="8" fill="#9BE9FF"/>
  <rect x="104" y="148" width="300" height="12" rx="6" fill="#62BADA"/>
  <rect x="104" y="170" width="270" height="12" rx="6" fill="#62BADA"/>
  <circle cx="326" cy="356" r="96" fill="#27D8FF" fill-opacity="0.18"/>
  <circle cx="326" cy="356" r="64" stroke="#96E8FF" stroke-width="12"/>
  <path d="M326 304V356L360 390" stroke="#B9F0FF" stroke-width="10" stroke-linecap="round"/>
  <text x="476" y="296" fill="#E6F8FF" font-family="Arial" font-size="28" font-weight="700">Gerenciamento de Facilities</text>
  <text x="476" y="330" fill="#A6D3E7" font-family="Arial" font-size="20">Eletrica | Hidraulica | Civil | Pintura</text>
  <text x="476" y="432" fill="#E6F8FF" font-family="Arial" font-size="28" font-weight="700">Orquestracao operacional centralizada</text>
</svg>
